<?xml version="1.0" standalone="no"?>
<!DOCTYPE svg PUBLIC "-//W3C//DTD SVG 20010904//EN"
 "http://www.w3.org/TR/2001/REC-SVG-20010904/DTD/svg10.dtd">
<svg version="1.0" xmlns="http://www.w3.org/2000/svg"
 width="1024.000000pt" height="1536.000000pt" viewBox="0 0 1024.000000 1536.000000"
 preserveAspectRatio="xMidYMid meet">

<g transform="translate(0.000000,1536.000000) scale(0.100000,-0.100000)"
fill="gray" stroke="none">
<path d="M6646 12853 c-4 -5 -88 -8 -187 -9 -153 -1 -182 -3 -197 -18 -12 -10
-26 -14 -37 -9 -18 6 -18 7 1 14 12 5 -1 8 -36 7 -30 0 -68 -6 -85 -13 -16 -7
-37 -16 -45 -18 -9 -3 -5 -6 10 -7 23 -1 23 -2 5 -10 -27 -12 -47 -12 -40 -1
9 16 -167 3 -235 -18 -136 -41 -210 -68 -228 -84 -10 -9 -22 -17 -26 -17 -9 0
-108 -44 -166 -74 -223 -115 -353 -217 -548 -429 -23 -26 -64 -58 -90 -71 -51
-26 -134 -95 -116 -96 7 0 29 16 50 35 22 19 48 35 58 35 18 0 18 -1 -2 -23
-12 -13 -22 -29 -22 -36 0 -7 -17 -37 -37 -67 -27 -39 -43 -53 -56 -50 -13 3
-17 -1 -15 -13 2 -10 -7 -29 -18 -42 -12 -13 -44 -49 -71 -79 -27 -30 -67 -80
-90 -110 -23 -30 -56 -70 -73 -89 -17 -18 -39 -45 -48 -59 -14 -21 -17 -22
-22 -7 -6 17 -5 20 -42 -60 -6 -13 -15 -22 -20 -19 -8 5 -12 -10 -9 -34 2 -9
-4 -12 -17 -8 -14 5 -28 -4 -54 -36 -19 -24 -38 -50 -42 -58 -4 -9 -2 -8 7 3
8 9 19 17 26 17 6 0 11 3 11 8 1 12 50 68 50 56 0 -14 -54 -95 -84 -125 -13
-13 -36 -44 -51 -68 -15 -25 -31 -49 -36 -55 -5 -6 -25 -36 -45 -66 -21 -30
-62 -88 -93 -129 -31 -40 -63 -85 -71 -99 -16 -27 -50 -47 -35 -21 25 45 -32
-30 -89 -115 -63 -95 -78 -125 -56 -111 6 3 10 1 10 -5 0 -7 -6 -10 -14 -7
-14 6 -89 -90 -102 -129 -3 -11 4 -4 16 14 12 17 26 32 31 32 5 0 14 12 20 28
6 15 13 22 16 15 2 -6 -11 -33 -30 -60 -19 -26 -43 -66 -52 -88 -25 -54 -37
-69 -45 -55 -4 6 -12 -1 -21 -17 -8 -15 -25 -38 -39 -51 -14 -13 -18 -21 -10
-17 10 4 9 2 -2 -8 -10 -8 -15 -17 -12 -20 10 -9 -85 -253 -131 -337 -8 -14
-22 -44 -33 -66 -11 -23 -25 -45 -31 -48 -6 -4 -11 -13 -11 -19 0 -7 4 -6 10
3 5 8 10 11 10 7 0 -9 -31 -59 -42 -67 -4 -3 -12 -18 -18 -34 -9 -26 -9 -27 5
-16 20 17 20 -5 0 -40 -8 -14 -14 -34 -15 -44 0 -32 -40 -106 -76 -142 -19
-18 -34 -39 -34 -45 0 -6 -9 -9 -20 -6 -16 4 -27 -4 -47 -34 -14 -21 -29 -39
-34 -39 -4 0 -20 -11 -35 -25 -15 -14 -30 -25 -34 -25 -15 0 -185 -182 -197
-210 -10 -23 -10 -35 -1 -55 9 -20 9 -34 0 -59 -16 -43 -15 -67 4 -105 11 -23
14 -47 10 -84 -3 -29 -7 -61 -8 -72 -1 -11 -9 -25 -17 -32 -14 -11 -14 -12 2
-13 11 0 17 -8 17 -24 0 -27 -14 -41 -50 -49 -14 -4 -41 -21 -60 -40 -19 -18
-44 -37 -55 -41 -19 -7 -18 -8 8 -22 34 -18 34 -24 -3 -59 -17 -16 -30 -34
-30 -41 0 -7 -13 -27 -30 -46 -16 -18 -38 -44 -49 -58 -16 -21 -22 -23 -33
-12 -11 11 -11 13 1 10 19 -4 65 63 50 73 -6 4 -8 12 -4 19 6 9 4 11 -4 6 -7
-5 -10 -15 -7 -23 4 -8 -17 -41 -52 -82 -83 -98 -102 -123 -97 -132 3 -4 -2
-10 -11 -13 -9 -3 -14 -13 -10 -21 3 -8 -5 -22 -17 -32 -27 -22 -71 -82 -74
-102 -1 -8 -6 -17 -12 -20 -5 -4 -15 -29 -21 -56 -6 -27 -17 -63 -25 -80 -8
-16 -15 -39 -17 -50 -3 -21 -48 -78 -56 -71 -2 2 -11 -2 -20 -10 -10 -7 -26
-20 -37 -28 -30 -22 -11 -30 22 -9 28 17 84 77 128 138 24 33 39 69 25 60 -13
-8 -13 -2 1 29 7 13 25 30 40 37 16 6 29 19 29 28 0 12 2 13 8 3 12 -18 42 -4
42 19 0 10 5 19 11 19 6 0 8 -8 5 -17 -9 -33 -25 -193 -30 -301 -1 -40 -8 -78
-14 -84 -17 -17 -15 -33 2 -19 8 7 16 8 19 4 8 -13 4 -113 -5 -113 -4 0 -8 -9
-8 -20 0 -11 -5 -20 -11 -20 -5 0 -7 -5 -4 -10 5 -8 11 -8 20 0 17 14 29 -14
16 -38 -5 -9 -7 -27 -5 -39 2 -13 -1 -23 -7 -23 -5 0 -7 -5 -4 -10 4 -6 10 -8
15 -5 14 9 21 -27 15 -74 -8 -55 -22 -97 -47 -133 -13 -19 -15 -27 -6 -31 10
-3 10 -9 0 -26 -7 -12 -10 -31 -7 -42 4 -11 2 -19 -4 -19 -6 0 -11 5 -11 12 0
6 -6 3 -14 -8 -9 -11 -11 -23 -6 -29 11 -14 -15 -54 -58 -90 -21 -18 -31 -33
-27 -44 3 -10 -3 -25 -15 -36 -11 -10 -20 -13 -20 -7 0 6 5 14 10 17 5 3 10
11 10 17 0 6 -8 3 -19 -8 -10 -10 -16 -24 -14 -31 3 -7 -5 -26 -16 -42 -12
-16 -21 -34 -21 -40 0 -6 -6 -11 -14 -11 -7 0 -16 -13 -19 -30 -4 -19 -13 -30
-24 -30 -13 0 -14 -3 -6 -11 9 -9 7 -21 -7 -48 -10 -21 -23 -59 -29 -87 -5
-27 -17 -76 -25 -109 -9 -33 -16 -75 -16 -92 0 -23 -5 -33 -15 -33 -16 0 -16
-1 -20 -37 -1 -12 -5 -28 -8 -37 -10 -25 4 -112 15 -93 4 8 7 24 6 34 -2 10 1
18 6 18 12 0 18 -109 7 -136 -9 -22 -10 -21 -11 11 -1 28 -3 31 -9 15 -5 -11
-6 -24 -4 -28 6 -10 10 -136 12 -335 1 -108 4 -141 13 -140 7 2 16 7 20 13 16
22 18 -6 2 -37 -15 -30 -18 -31 -25 -13 -9 23 -11 16 -13 -37 0 -21 -5 -37
-10 -37 -9 1 -26 -21 -26 -34 0 -5 4 -5 10 -2 14 9 -16 -72 -40 -105 -11 -15
-20 -33 -20 -40 0 -13 -42 -91 -71 -132 -11 -14 -19 -31 -19 -38 0 -11 -139
-149 -206 -204 -36 -30 -40 -49 -5 -24 12 8 18 18 14 22 -4 4 0 4 10 0 14 -5
15 -9 6 -20 -6 -8 -17 -14 -23 -14 -6 -1 -33 -21 -59 -45 -37 -34 -44 -45 -30
-45 11 0 29 11 41 25 12 14 27 25 32 25 6 0 20 9 32 20 12 11 27 20 32 20 6 0
5 -4 -2 -9 -8 -4 -19 -19 -26 -32 -6 -13 -29 -33 -51 -46 -22 -12 -45 -26 -52
-32 -15 -13 -26 -14 -18 -2 3 6 -7 6 -27 0 -18 -5 -34 -9 -36 -9 -2 0 0 -4 3
-10 3 -5 1 -10 -4 -10 -6 0 -11 -6 -11 -12 0 -14 86 -18 107 -5 6 4 13 1 16
-5 3 -10 8 -10 18 1 9 9 9 11 2 7 -18 -10 -16 9 2 24 8 7 26 10 40 8 13 -3 26
0 28 6 2 6 7 9 10 6 9 -8 -9 -80 -52 -201 -23 -64 -48 -150 -56 -190 -13 -72
-13 -73 5 -52 10 13 23 23 29 23 6 0 11 8 11 17 0 9 12 55 26 102 25 82 64
144 81 127 4 -4 8 -46 9 -94 1 -48 4 -134 8 -192 3 -58 8 -150 10 -205 2 -55
7 -111 11 -125 3 -14 14 -81 25 -150 29 -194 53 -290 70 -290 11 0 4 78 -11
123 -18 60 -34 417 -18 417 5 0 9 7 9 15 0 9 8 18 17 22 10 3 26 13 36 21 15
13 17 13 17 0 0 -9 -7 -21 -15 -28 -23 -19 -19 -43 5 -35 12 4 20 2 20 -5 0
-8 43 36 68 70 2 2 7 -2 12 -10 8 -12 10 -12 10 4 0 12 5 16 15 12 18 -7 20 5
2 23 -6 7 -7 11 -2 10 17 -4 45 12 45 26 0 8 5 17 12 21 8 5 9 0 4 -17 -4 -13
-9 -34 -11 -45 -2 -12 -10 -33 -19 -47 -14 -21 -14 -25 -3 -30 19 -7 14 -53
-10 -86 -10 -14 -27 -45 -38 -68 -11 -24 -27 -45 -36 -48 -12 -4 -16 -16 -15
-44 2 -29 -4 -44 -21 -61 -13 -12 -23 -30 -22 -39 0 -13 2 -12 8 3 9 25 23 5
15 -21 -5 -17 -5 -17 6 0 6 9 15 17 20 17 11 0 0 -32 -14 -42 -8 -5 -7 -11 1
-19 9 -9 15 -6 24 14 7 15 18 27 26 27 7 0 17 8 20 18 4 9 17 28 30 41 l24 25
-11 -30 c-6 -16 -18 -36 -26 -45 -12 -13 -12 -18 -3 -21 16 -5 -16 -53 -66
-96 -24 -22 -36 -42 -39 -66 -2 -20 -7 -40 -11 -46 -13 -22 14 -9 37 18 13 15
41 42 63 61 57 49 155 179 148 197 -3 10 0 12 10 8 10 -4 29 12 57 50 23 31
46 56 51 56 5 0 9 9 9 19 0 11 14 31 30 44 17 14 30 35 30 46 0 29 17 35 26 9
12 -35 12 -62 2 -75 -5 -7 -5 -14 1 -17 20 -13 41 -69 30 -82 -7 -9 -6 -35 4
-91 12 -65 13 -91 3 -154 -11 -69 -11 -76 3 -72 13 3 19 -9 29 -54 7 -32 14
-78 17 -103 2 -25 11 -88 19 -140 8 -52 15 -128 15 -168 0 -40 5 -81 11 -92 9
-16 8 -20 -5 -20 -8 0 -15 -4 -15 -10 0 -5 9 -10 21 -10 19 0 21 -5 17 -37 -4
-29 0 -41 16 -54 17 -14 19 -21 10 -51 -14 -45 -12 -100 4 -106 9 -3 11 7 7
39 -4 33 -3 41 6 32 22 -22 43 -201 27 -235 -5 -10 -3 -20 4 -24 7 -4 8 -3 4
4 -4 7 -2 12 3 12 6 0 12 -3 12 -7 6 -35 5 -52 -4 -50 -6 1 -12 -13 -14 -30
-1 -18 2 -33 8 -33 5 0 7 5 4 10 -10 17 12 11 26 -7 8 -9 14 -40 15 -72 0 -31
8 -70 17 -88 16 -30 16 -34 -2 -70 -14 -30 -17 -50 -12 -93 7 -57 11 -54 31
20 4 16 10 -16 18 -90 7 -63 18 -146 24 -185 14 -89 6 -202 -31 -462 -17 -115
-37 -275 -46 -358 -8 -82 -22 -197 -30 -255 -20 -140 -45 -424 -45 -505 l0
-65 1545 0 1545 0 0 79 c0 195 107 353 279 411 77 25 122 25 207 -1 79 -25
122 -64 161 -147 33 -71 41 -184 19 -270 -9 -35 -16 -66 -16 -68 0 -2 257 -4
570 -4 449 0 570 3 571 13 1 6 0 22 0 34 -3 37 16 34 44 -7 l28 -40 68 0 68 0
-22 34 c-16 24 -31 35 -52 38 -26 3 -30 7 -30 32 0 25 -7 33 -47 53 l-48 24 0
121 c0 89 5 133 17 169 10 27 21 49 25 49 5 0 8 15 8 34 0 21 6 36 15 40 19 7
19 35 0 42 -24 10 -8 22 21 16 22 -4 25 -2 22 19 -2 18 -9 24 -25 23 -14 0
-23 6 -24 15 0 9 -3 39 -5 66 -2 28 -4 59 -3 70 0 11 1 112 3 225 3 194 5 209
31 285 30 89 84 195 146 288 167 252 259 642 229 981 -13 155 -32 260 -68 380
-19 67 -23 91 -14 94 8 2 11 16 7 40 -4 31 -4 33 5 14 5 -12 16 -25 24 -28 8
-3 13 -11 10 -17 -7 -21 12 -72 27 -72 7 0 32 -36 54 -80 47 -92 78 -113 74
-48 -8 120 10 156 33 65 6 -25 13 -41 16 -34 7 21 24 13 20 -10 -2 -13 -9 -22
-16 -20 -6 1 -12 -2 -12 -8 0 -5 5 -10 12 -10 6 0 8 -3 5 -6 -3 -4 -2 -15 4
-26 7 -13 7 -29 0 -49 -5 -16 -6 -29 -2 -29 14 0 21 58 21 181 0 70 4 119 10
119 5 0 6 7 3 17 -4 10 -2 14 4 10 22 -14 53 153 53 294 1 96 2 102 15 74 7
-17 14 -23 15 -15 4 24 -1 55 -10 60 -4 3 -10 23 -14 45 -5 22 -15 56 -24 75
-9 19 -16 40 -17 46 0 6 -8 21 -16 35 -9 13 -31 53 -49 89 -18 36 -41 77 -51
92 -11 14 -19 31 -19 37 0 6 -15 33 -33 59 -42 59 -87 136 -87 147 0 5 7 0 15
-11 8 -10 15 -15 15 -10 0 5 -7 17 -16 27 -11 12 -16 41 -17 106 -2 94 6 143
25 143 7 0 9 -24 6 -74 -4 -60 -2 -72 8 -62 7 7 15 34 19 59 7 42 24 66 26 35
2 -38 42 -145 62 -168 9 -11 22 -43 28 -71 6 -30 16 -48 22 -46 12 4 37 -16
37 -29 0 -5 -5 -3 -12 4 -26 26 -38 13 -38 -38 0 -38 7 -61 26 -90 33 -49 45
-45 15 5 -24 41 -27 52 -8 37 10 -9 12 -4 9 22 -6 47 24 45 33 -3 8 -41 22
-71 34 -71 13 0 10 32 -15 120 -25 91 -71 310 -79 372 -12 92 -14 252 -5 294
7 31 7 50 1 58 -13 15 -2 58 12 49 6 -4 8 2 5 15 -3 12 -2 22 4 24 5 2 6 12 2
22 -7 19 -8 19 -15 0 -6 -15 -8 -12 -8 14 -1 20 3 31 12 30 12 -3 14 48 8 217
-3 74 3 134 14 159 4 10 8 31 9 47 1 16 4 29 9 29 8 0 10 -13 7 -54 -1 -17 2
-26 8 -22 6 3 13 2 17 -4 11 -18 25 -11 26 13 1 17 3 14 10 -11 5 -18 14 -30
19 -27 5 3 3 23 -6 47 -7 22 -14 50 -14 62 0 12 -4 26 -9 32 -11 12 -2 76 10
68 5 -3 9 -16 9 -28 0 -13 6 -35 13 -50 13 -23 14 -20 10 37 -5 72 -4 119 2
125 3 3 11 0 18 -6 8 -7 16 -10 18 -7 7 7 81 -39 89 -55 5 -8 13 -28 19 -44 7
-16 14 -26 17 -23 3 3 1 15 -6 26 -7 14 -7 21 0 21 5 0 10 -5 10 -11 0 -5 4
-8 9 -5 14 9 1 45 -20 57 -11 5 -19 18 -19 28 0 10 -7 37 -15 60 -15 43 -11
63 23 99 6 7 12 25 12 38 0 14 9 34 20 46 11 12 20 32 20 45 0 16 4 22 12 17
7 -5 9 -2 5 9 -3 9 0 18 9 21 20 8 13 -110 -11 -181 -22 -68 -16 -104 9 -48
36 81 39 90 37 103 -1 7 2 12 6 11 17 -3 33 1 31 9 -3 13 20 58 36 71 10 8 16
29 16 53 0 30 3 39 14 35 8 -3 18 5 25 19 20 44 34 29 27 -28 -4 -29 -9 -90
-11 -136 -2 -67 0 -80 11 -71 7 6 11 16 8 23 -3 8 1 20 9 28 10 10 12 20 6 31
-11 19 -1 67 13 67 7 0 8 -16 5 -40 -4 -29 -1 -42 10 -48 8 -5 18 -33 22 -66
8 -59 31 -101 31 -57 0 20 2 21 15 11 8 -7 15 -23 15 -36 0 -23 1 -23 19 -7
15 12 17 21 10 35 -5 10 -17 18 -25 18 -13 0 -15 7 -9 38 12 62 24 73 25 20 0
-29 5 -48 11 -48 6 0 9 9 6 20 -3 11 2 34 10 51 8 16 12 36 9 44 -3 8 -1 17 4
20 6 4 10 17 10 31 0 13 5 24 11 24 7 0 9 10 7 25 -4 19 -1 25 11 23 8 -2 16
2 16 7 0 6 4 15 8 22 4 6 1 17 -6 25 -11 12 -14 44 -8 103 1 19 2 19 12 2 6
-10 9 -35 7 -55 -2 -26 1 -36 10 -34 6 1 12 -3 12 -10 0 -6 9 -2 21 10 11 12
17 26 14 31 -3 5 -1 12 5 16 5 3 10 -1 10 -10 0 -11 5 -15 15 -11 8 3 15 1 15
-4 0 -11 29 -40 40 -40 13 0 6 41 -13 77 -11 20 -13 34 -7 38 6 4 8 11 5 16
-4 5 -1 9 4 9 11 0 14 -11 9 -27 -2 -5 -6 -7 -10 -6 -4 2 -5 -4 -1 -13 4 -11
8 -12 13 -4 11 17 19 0 16 -36 -1 -22 5 -35 21 -48 20 -15 23 -15 23 -1 0 8
-5 15 -11 15 -8 0 -9 13 -5 41 4 23 3 46 -2 53 -13 16 -21 56 -15 72 8 22 23
17 24 -8 2 -48 30 80 33 152 5 109 17 190 28 190 5 0 7 4 4 8 -3 5 -1 22 4 38
7 24 8 25 9 7 1 -33 21 -28 21 5 0 15 4 65 9 112 15 129 12 260 -7 347 -6 26
-16 75 -23 108 -22 115 -60 260 -75 283 -13 19 -32 89 -36 130 -1 6 -5 12 -9
12 -3 0 -9 8 -12 18 -2 9 -8 26 -12 37 l-8 20 19 -20 c11 -11 45 -51 76 -90
83 -104 100 -122 105 -108 3 10 9 10 23 1 41 -26 31 5 -17 55 -27 28 -65 75
-83 102 -19 28 -44 62 -56 77 -32 40 -117 211 -143 291 -13 38 -27 101 -32
140 -5 43 -15 76 -24 83 -23 17 -31 54 -25 119 6 75 17 61 18 -24 1 -35 3 -66
6 -69 4 -3 6 60 7 139 0 79 4 164 8 189 4 25 4 58 0 72 -5 19 -3 28 7 32 10 4
14 -3 14 -24 0 -17 4 -30 9 -30 12 0 22 45 14 66 -12 33 14 5 43 -44 31 -55
134 -167 134 -147 0 8 -19 31 -41 52 -23 21 -56 61 -74 88 -29 46 -77 179 -78
215 -1 44 14 228 19 249 13 43 42 -135 38 -224 -4 -66 -2 -76 10 -66 11 10 16
7 25 -16 10 -27 10 -27 5 7 -3 19 -7 64 -10 100 -2 36 -7 82 -10 103 -5 31 -4
36 10 31 9 -3 16 -1 16 5 0 6 -9 11 -20 11 -23 0 -27 18 -5 26 8 4 14 17 13
30 -2 14 -7 23 -14 20 -16 -6 -20 8 -23 65 -1 32 3 48 12 52 16 6 14 80 -3 85
-11 4 -2 114 11 122 10 7 12 111 5 240 -9 156 -16 200 -32 200 -16 0 -18 14
-4 39 15 29 -54 367 -70 341 -4 -6 -7 10 -7 37 0 68 -7 143 -14 143 -9 0 -31
98 -35 153 -3 56 -41 186 -80 279 -14 31 -23 60 -22 65 4 14 -13 53 -23 53 -5
0 -20 25 -34 56 -26 58 -32 80 -15 54 6 -9 10 -10 10 -3 0 6 -7 18 -15 27 -8
8 -15 17 -15 20 0 3 -13 27 -29 53 -16 27 -41 77 -56 113 -15 36 -35 83 -45
105 -36 80 -44 101 -48 135 -6 56 -127 270 -197 351 -18 19 -40 54 -51 77 -10
23 -23 42 -29 42 -13 0 -50 60 -50 81 0 9 -23 45 -51 80 -58 73 -299 317 -353
357 -20 15 -56 43 -81 64 -25 20 -68 49 -95 63 -28 15 -52 30 -55 34 -10 13
-50 31 -69 31 -11 0 -23 5 -27 11 -5 8 -9 8 -14 -1 -9 -15 -33 -3 -27 14 3 7
-8 11 -32 10 -20 -1 -42 3 -49 9 -17 13 -52 17 -52 5 0 -14 -27 -9 -40 7 -7 9
-13 25 -14 38 -1 29 -81 53 -107 31 -25 -22 -76 -18 -82 7 -3 12 -10 18 -16
14 -6 -3 -14 1 -17 9 -8 20 -60 46 -93 46 -23 0 -24 -1 -9 -16 9 -9 28 -16 42
-16 13 0 27 -7 31 -15 3 -10 1 -13 -9 -10 -8 3 -17 1 -19 -6 -3 -9 -8 -9 -18
1 -7 6 -23 12 -35 12 -13 0 -25 4 -29 10 -3 5 -12 7 -20 3 -8 -3 -15 0 -15 5
0 19 19 23 42 11 21 -11 22 -11 9 4 -14 18 -33 22 -45 10z m-450 -45 c4 -5
-16 -8 -44 -8 -29 0 -52 4 -52 9 0 10 85 9 96 -1z m589 -27 c3 -5 1 -12 -5
-16 -5 -3 -10 1 -10 9 0 18 6 21 15 7z m925 -452 c0 -6 -4 -7 -10 -4 -5 3 -10
11 -10 16 0 6 5 7 10 4 6 -3 10 -11 10 -16z m-1040 -200 c0 -29 -25 -89 -37
-89 -18 0 -16 33 5 69 17 31 32 40 32 20z m-52 -139 c13 0 13 -3 4 -12 -10
-10 -15 -10 -22 2 -8 12 -10 13 -10 1 0 -8 -2 -12 -5 -10 -2 3 -1 16 2 29 6
19 8 21 11 8 2 -10 11 -18 20 -18z m-28 -99 c0 -12 -20 -25 -27 -18 -7 7 6 27
18 27 5 0 9 -4 9 -9z m-10 -35 c0 -3 -4 -8 -10 -11 -5 -3 -10 -1 -10 4 0 6 5
11 10 11 6 0 10 -2 10 -4z m-66 -193 c-4 -15 -18 -36 -31 -46 -25 -20 -31 -47
-10 -47 6 -1 -1 -8 -17 -16 -15 -9 -37 -13 -48 -11 -23 7 -48 -1 -48 -15 0 -5
4 -7 9 -4 14 9 61 -33 61 -54 0 -10 6 -20 13 -22 6 -3 13 -16 13 -29 1 -13 5
-39 9 -56 5 -21 4 -33 -3 -33 -15 0 -9 -27 11 -51 20 -23 13 -69 -10 -69 -12
0 -14 -8 -9 -35 4 -21 3 -35 -3 -35 -5 0 -9 -13 -9 -28 1 -16 -4 -37 -9 -47
-10 -18 -11 -18 -17 1 -3 10 -4 33 -2 49 2 17 1 35 -2 40 -16 26 -20 113 -6
124 14 9 37 54 25 46 -12 -7 -21 9 -25 47 -1 13 -5 29 -9 35 -4 6 -5 17 -2 25
3 7 -14 35 -38 63 -27 31 -42 59 -42 76 0 15 5 27 10 26 6 -1 8 7 7 17 -3 17
-2 18 12 7 9 -7 14 -16 12 -20 -9 -14 21 -28 42 -20 16 6 22 17 22 41 0 24 3
29 10 18 7 -12 12 -12 29 4 12 11 21 15 21 10 0 -5 7 2 16 14 20 29 26 28 18
-5z m-76 -670 c-4 -34 -28 -43 -28 -10 0 25 7 37 22 37 5 0 8 -12 6 -27z m29
-160 c-3 -10 -5 -4 -5 12 0 17 2 24 5 18 2 -7 2 -21 0 -30z m93 3 c0 -2 -3
-11 -6 -20 -9 -23 -24 -20 -24 4 0 11 7 20 15 20 8 0 15 -2 15 -4z m-767 -73
c-3 -15 33 -17 42 -3 7 11 8 10 70 -45 43 -38 55 -41 73 -23 9 9 16 7 32 -7
11 -10 20 -24 20 -32 0 -15 42 -35 50 -23 3 4 39 -6 80 -22 69 -28 82 -30 160
-25 95 6 121 13 114 30 -7 19 85 72 99 58 6 -6 7 -11 2 -11 -6 0 -21 -9 -35
-19 l-24 -19 47 11 c26 5 56 20 68 33 22 23 19 44 -7 44 -19 0 -18 7 6 37 15
19 20 21 20 9 0 -21 43 -22 60 -1 7 8 21 15 31 15 17 0 17 -2 -3 -37 -12 -21
-27 -41 -32 -45 -24 -16 6 -19 30 -3 22 14 28 15 35 4 6 -9 2 -20 -11 -31 -29
-24 -25 -39 8 -32 39 8 57 -29 33 -66 -9 -13 -11 -21 -4 -17 17 11 54 -7 95
-46 35 -33 36 -36 26 -71 -9 -28 -9 -39 1 -49 11 -10 12 -8 7 8 -8 28 7 47 35
43 17 -2 25 -11 28 -28 4 -30 19 -42 44 -34 9 3 17 0 17 -6 0 -17 20 -1 30 24
7 16 9 11 9 -26 1 -58 -6 -78 -26 -71 -13 5 -14 -5 -8 -78 7 -82 23 -139 26
-94 1 11 1 31 0 45 -1 20 2 17 17 -15 10 -22 22 -52 25 -66 4 -15 22 -44 42
-65 19 -22 35 -42 35 -45 0 -3 9 -16 20 -29 11 -13 20 -29 20 -36 0 -7 8 -18
18 -23 24 -13 44 -96 46 -194 1 -53 6 -82 14 -85 7 -2 12 -8 12 -13 0 -6 -4
-8 -9 -4 -13 8 -20 -6 -23 -49 -1 -21 -5 -39 -8 -41 -3 -2 -42 0 -86 4 -60 7
-86 5 -108 -5 -16 -8 -41 -14 -55 -14 -14 0 -59 -6 -100 -14 -52 -10 -81 -11
-96 -4 -15 7 -42 6 -86 -3 -35 -6 -100 -13 -144 -15 -44 -1 -89 -3 -100 -3
-29 -1 -87 -59 -80 -80 3 -12 -9 -29 -41 -57 -44 -37 -89 -106 -78 -117 10
-10 76 36 85 59 4 13 15 24 24 24 8 0 15 8 16 18 0 12 3 10 10 -7 5 -14 6 -27
1 -30 -5 -3 -12 -19 -16 -34 -6 -26 -5 -28 14 -22 16 5 20 2 20 -17 0 -13 7
-31 15 -41 13 -18 14 -17 17 10 4 38 39 39 49 1 5 -21 4 -28 -7 -28 -18 0 -18
-14 1 -30 9 -8 28 -10 55 -5 27 5 40 3 40 -5 0 -6 -4 -9 -9 -6 -5 3 -20 0 -33
-7 -21 -10 -23 -15 -11 -25 7 -7 13 -10 13 -6 0 3 8 -4 18 -16 17 -21 19 -21
34 -6 21 21 30 20 26 -1 -2 -11 7 -19 31 -25 18 -5 34 -8 36 -6 1 2 5 20 9 41
7 36 6 38 -13 28 -26 -14 -31 -14 -31 4 0 9 9 15 24 15 31 0 51 20 66 65 10
30 15 35 33 29 97 -29 117 -93 30 -94 -18 0 -33 -5 -33 -11 0 -6 -9 -8 -21 -4
-29 10 -38 -9 -25 -50 7 -21 18 -35 31 -37 34 -7 45 2 45 35 l0 31 33 -32 c35
-34 44 -37 66 -23 12 8 12 12 -2 26 -27 26 -20 36 13 17 16 -9 30 -20 30 -24
0 -12 54 -10 66 2 9 9 43 15 97 19 9 0 23 12 29 26 6 14 17 25 25 25 7 0 18
11 23 25 5 14 14 25 20 25 5 0 10 7 10 16 0 8 5 12 10 9 6 -4 42 4 81 16 70
22 72 22 85 4 8 -10 12 -27 9 -36 -3 -9 -10 -50 -14 -91 -5 -40 -16 -90 -25
-112 -9 -21 -16 -54 -16 -73 0 -33 -35 -158 -50 -178 -4 -5 -10 -35 -14 -65
-4 -30 -14 -80 -23 -110 -20 -71 -92 -220 -109 -227 -8 -3 -14 -11 -14 -19 0
-8 -6 -11 -15 -7 -9 3 -15 2 -13 -3 5 -15 -35 -55 -74 -75 -38 -19 -45 -33
-29 -57 5 -9 17 -11 34 -6 15 3 27 3 27 0 0 -21 -24 -96 -30 -96 -4 0 -10 -10
-14 -23 -3 -12 -21 -40 -41 -61 -19 -21 -35 -42 -35 -47 0 -5 -4 -9 -9 -9 -4
0 -6 -12 -3 -26 3 -18 0 -30 -12 -36 -9 -5 -16 -18 -16 -29 0 -12 -10 -23 -27
-29 -16 -6 -35 -15 -43 -20 -8 -6 -23 -13 -32 -16 -10 -4 -18 -10 -18 -15 0
-5 -8 -9 -19 -9 -10 0 -29 -9 -43 -19 -13 -11 -37 -23 -53 -27 -16 -4 -71 -33
-123 -66 -51 -32 -97 -58 -103 -58 -5 0 -9 -4 -9 -10 0 -5 -7 -10 -15 -10 -8
0 -15 -9 -15 -20 0 -13 -5 -17 -14 -14 -8 3 -19 -3 -26 -15 -6 -12 -17 -21
-25 -21 -8 0 -15 -4 -15 -8 0 -14 -84 -73 -96 -68 -7 3 -29 -12 -51 -32 -21
-20 -56 -49 -78 -63 -131 -85 -189 -102 -341 -103 l-121 -1 -92 47 c-168 87
-264 180 -337 328 -15 30 -29 57 -33 60 -3 3 -19 23 -36 45 -16 22 -31 42 -34
45 -4 3 -15 21 -25 40 -11 19 -34 55 -53 79 -18 24 -33 48 -33 52 0 5 -7 9
-15 9 -9 0 -19 8 -22 18 -4 9 -19 28 -35 41 -15 13 -28 32 -28 42 0 11 -7 19
-15 19 -8 0 -15 5 -15 11 0 5 -5 7 -10 4 -6 -3 -35 19 -65 49 -30 31 -59 56
-64 56 -17 0 -85 94 -133 184 -46 86 -62 142 -61 211 0 17 -4 33 -11 37 -8 5
-7 11 2 20 6 6 12 29 12 50 0 32 3 38 23 39 39 2 62 -3 70 -15 5 -7 7 -3 5 9
-3 17 2 20 30 17 17 -1 32 2 32 8 0 5 -4 10 -10 10 -5 0 -10 6 -10 14 0 8 -7
22 -16 30 -14 15 -14 16 0 16 20 0 21 14 2 29 -23 19 -28 78 -16 181 6 52 13
124 15 160 4 75 8 94 24 135 7 17 15 44 18 60 3 17 9 35 13 40 4 6 11 28 14
50 9 48 42 147 64 193 11 21 24 32 38 32 13 0 28 2 36 5 7 3 23 -11 38 -32 14
-21 38 -52 55 -69 53 -56 74 -82 95 -124 20 -39 40 -53 40 -27 0 7 3 8 8 2 4
-5 21 -23 39 -38 27 -25 33 -27 51 -16 26 16 40 5 21 -17 -12 -14 -9 -16 21
-13 29 3 34 1 32 -14 -3 -20 13 -23 25 -4 4 6 16 18 26 26 15 12 20 11 36 -3
13 -12 21 -14 26 -6 9 14 35 -6 35 -26 0 -8 5 -14 10 -14 6 0 10 7 10 15 0 8
6 15 14 15 13 0 28 45 18 55 -3 3 -20 5 -39 5 -18 0 -33 2 -33 4 0 16 45 76
56 76 23 0 94 -24 94 -32 0 -4 6 -5 14 -2 8 3 25 -5 38 -18 l23 -23 -52 -3
c-52 -3 -69 -17 -52 -43 8 -12 12 -11 23 4 12 16 19 17 61 6 42 -11 49 -10 57
4 12 22 30 22 26 0 -2 -12 4 -19 20 -21 14 -2 22 2 22 11 0 15 -22 36 -115
110 -33 26 -68 54 -78 62 -9 8 -25 15 -35 15 -24 -1 -192 53 -192 62 0 8 46 4
119 -11 93 -19 175 -66 236 -134 30 -34 55 -57 55 -51 0 17 -79 132 -98 144
-13 8 -10 9 13 4 51 -12 118 -51 160 -93 21 -23 46 -41 54 -41 11 0 11 4 -3
19 -13 14 -16 28 -11 54 6 31 2 40 -29 74 -19 22 -52 48 -73 59 -21 10 -47 26
-58 35 -11 9 -46 30 -77 47 -32 17 -84 49 -117 70 -32 22 -97 59 -145 82 -47
23 -86 46 -86 50 0 4 -14 10 -32 14 -17 3 -46 18 -65 32 -26 19 -33 22 -33 10
0 -20 -14 -21 -29 -2 -9 11 -8 15 5 20 13 5 14 9 4 21 -15 18 -4 58 47 157 7
14 13 30 13 36 0 17 65 112 76 112 7 0 15 11 18 25 4 14 11 23 16 20 5 -3 7 1
4 9 -3 9 3 17 17 21 26 9 58 43 59 64 0 24 31 51 57 51 19 0 23 4 19 18 -8 24
32 83 66 99 29 15 45 31 50 53 2 8 10 20 19 27 9 7 19 27 23 44 8 40 23 59 42
52 8 -3 14 1 14 9 0 20 47 37 100 35 30 -1 44 -6 43 -14z m-2013 -18 c-7 -8
-15 -13 -19 -11 -4 3 -12 -7 -19 -22 -11 -23 -72 -82 -72 -70 0 13 84 114 98
119 23 9 28 3 12 -16z m2983 -45 c-7 -28 -13 -25 -13 6 0 14 4 23 9 20 5 -3 7
-15 4 -26z m-373 0 c0 -5 -10 -10 -22 -10 -19 0 -20 2 -8 10 19 13 30 13 30 0z
m80 -20 c-11 -21 -44 -27 -55 -10 -3 6 1 10 9 10 9 0 16 5 16 10 0 6 9 10 20
10 18 0 19 -3 10 -20z m327 -2 c-3 -8 -6 -5 -6 6 -1 11 2 17 5 13 3 -3 4 -12
1 -19z m1860 -100 c-3 -8 -6 -5 -6 6 -1 11 2 17 5 13 3 -3 4 -12 1 -19z
m-1795 -20 c-15 -15 -26 -4 -18 18 5 13 9 15 18 6 9 -9 9 -15 0 -24z m1857
-278 c-2 -30 -27 66 -27 100 0 28 3 23 14 -25 7 -33 13 -67 13 -75z m-5251
-25 c-6 -14 -15 -25 -19 -25 -5 0 -3 11 3 25 6 14 15 25 19 25 5 0 3 -11 -3
-25z m5265 -408 c-10 -17 -23 18 -22 63 l1 45 13 -49 c8 -28 11 -54 8 -59z m2
-54 c12 -75 12 -84 5 -88 -4 -3 -11 17 -14 43 -4 26 -9 55 -12 65 -3 9 -1 17
5 17 5 0 13 -17 16 -37z m-3616 -63 c11 -6 43 -15 71 -20 67 -13 360 -153 347
-166 -3 -4 -121 17 -217 38 -25 5 -64 12 -87 15 -24 3 -43 8 -43 13 0 4 -23 5
-50 2 -38 -3 -55 -1 -69 12 -10 9 -22 16 -27 15 -31 -5 -64 3 -64 16 0 8 -5
15 -11 15 -5 0 -8 4 -5 9 4 5 0 11 -6 14 -23 8 7 42 40 45 22 2 29 7 25 18 -4
12 0 12 35 0 23 -8 50 -20 61 -26z m3627 -128 c-11 -10 -15 4 -8 28 l7 25 3
-23 c2 -13 1 -26 -2 -30z m-3441 -250 c-3 -3 -11 0 -18 7 -9 10 -8 11 6 5 10
-3 15 -9 12 -12z m1796 3 c14 -1 30 -4 35 -7 5 -3 22 -8 39 -12 16 -4 36 -13
44 -19 7 -6 26 -10 42 -9 21 3 29 -1 29 -12 0 -9 -5 -16 -12 -16 -6 0 -3 -9 7
-20 18 -19 17 -21 -8 -43 -15 -12 -27 -28 -27 -35 0 -16 -19 -15 -26 1 -2 7
-23 13 -46 14 -23 1 -85 16 -138 32 -52 16 -123 38 -157 47 -35 10 -63 21 -63
25 0 4 -18 10 -41 14 -37 6 -39 8 -21 20 12 9 61 15 136 18 64 3 120 8 124 11
3 4 18 4 32 0 14 -4 37 -8 51 -9z m-1731 -17 c-13 -5 -25 -6 -29 -3 -9 10 21
24 37 17 12 -4 10 -7 -8 -14z m-2340 -28 c0 -5 -5 -10 -11 -10 -5 0 -7 5 -4
10 3 6 8 10 11 10 2 0 4 -4 4 -10z m3765 -38 c33 -11 60 -30 53 -37 -7 -7
-128 23 -142 36 -11 10 59 10 89 1z m-105 -72 c0 -5 -4 -10 -10 -10 -5 0 -10
5 -10 10 0 6 5 10 10 10 6 0 10 -4 10 -10z m-3760 -49 c0 -5 -17 -21 -37 -37
-21 -15 -43 -35 -50 -44 -7 -8 -13 -11 -13 -6 0 5 -9 1 -20 -9 -11 -10 -17
-21 -15 -25 2 -4 -5 -16 -18 -26 -18 -16 -19 -16 -8 -1 21 26 -2 20 -29 -8
-13 -14 -29 -25 -37 -25 -18 0 -17 49 2 56 8 3 31 21 51 41 20 19 59 44 85 56
27 11 49 24 49 29 0 4 9 8 20 8 11 0 20 -4 20 -9z m23 -141 c4 -14 -4 -31 -24
-53 -16 -17 -29 -38 -29 -46 0 -8 -3 -11 -7 -8 -3 4 -15 0 -25 -9 -14 -13 -15
-20 -7 -31 9 -10 8 -13 -5 -13 -9 0 -16 5 -16 10 0 6 -4 10 -10 10 -15 0 -50
-33 -44 -42 3 -4 2 -14 -2 -20 -13 -20 -12 -47 2 -52 7 -3 14 3 16 12 2 10 6
13 10 7 11 -18 -29 -94 -56 -107 -20 -8 -23 -14 -15 -24 17 -21 3 -59 -27 -73
-33 -14 -37 -11 -25 21 5 13 7 36 4 52 -6 29 23 96 42 96 5 0 0 8 -11 18 -21
16 -39 82 -23 82 5 0 11 15 14 33 4 19 16 40 27 48 12 8 33 24 48 37 15 12 31
22 35 22 8 0 -4 -61 -16 -76 -9 -11 -2 -24 11 -24 4 0 10 21 14 46 7 55 23 79
41 64 9 -8 17 -4 29 15 20 30 42 32 49 5z m-93 -174 c0 -2 -7 -9 -15 -16 -12
-10 -15 -10 -15 4 0 9 7 16 15 16 8 0 15 -2 15 -4z m5920 -200 c0 -8 -4 -18
-10 -21 -5 -3 -10 3 -10 14 0 12 5 21 10 21 6 0 10 -6 10 -14z m-43 -18 c-3
-8 -6 -5 -6 6 -1 11 2 17 5 13 3 -3 4 -12 1 -19z m-8 -144 c-4 -122 -19 -128
-18 -7 1 62 5 100 11 97 5 -3 8 -44 7 -90z m-6099 11 c-7 -9 -15 -13 -17 -11
-7 7 7 26 19 26 6 0 6 -6 -2 -15z m-50 -44 c-13 -26 -27 -34 -35 -20 -4 5 1
17 11 24 27 20 36 18 24 -4z m-230 -265 c0 -3 -4 -8 -10 -11 -5 -3 -10 -1 -10
4 0 6 5 11 10 11 6 0 10 -2 10 -4z m6390 -79 c0 -18 -2 -19 -10 -7 -13 20 -13
43 0 35 6 -3 10 -16 10 -28z m-6265 -18 c-3 -12 -7 -24 -10 -27 -3 -3 -3 5 -1
19 6 30 5 29 10 29 3 0 3 -10 1 -21z m6304 -225 c12 -19 21 -38 21 -41 0 -9
-36 40 -43 60 -10 28 -1 20 22 -19z m52 -91 c26 -63 35 -80 70 -123 19 -25 39
-52 42 -60 4 -8 14 -25 23 -37 30 -41 -3 -24 -38 20 -54 67 -101 146 -104 175
-1 15 -8 28 -13 30 -14 5 -14 22 -1 22 6 0 15 -12 21 -27z m-3879 -240 c73
-152 107 -225 122 -268 6 -18 5 -17 -17 3 -14 13 -33 39 -43 59 -11 20 -27 45
-36 55 -10 10 -18 23 -18 29 0 6 -13 30 -30 54 -24 35 -70 176 -70 218 0 29
26 -14 92 -150z m-140 124 c14 -13 32 -44 41 -71 l16 -47 -30 25 c-17 15 -37
26 -45 26 -9 0 -12 4 -9 10 3 5 0 7 -9 4 -18 -7 -42 31 -26 41 6 4 18 4 26 1
12 -4 14 -1 9 14 -8 26 -3 25 27 -3z m209 -124 c74 -60 182 -212 172 -241 -3
-9 -3 -14 1 -10 4 3 27 -13 50 -38 23 -24 45 -44 48 -44 10 0 108 -97 108
-108 0 -17 11 -15 26 6 13 16 13 16 14 0 0 -11 8 -18 19 -18 11 0 23 -4 26
-10 3 -5 -2 -10 -12 -10 -35 -1 19 -24 61 -26 24 -1 43 -9 48 -18 5 -9 14 -13
20 -10 7 5 9 1 5 -9 -4 -11 -1 -17 9 -17 8 0 13 -4 10 -9 -8 -13 14 -28 52
-36 29 -6 33 -11 30 -30 -4 -17 2 -27 19 -36 12 -7 23 -18 23 -26 0 -7 5 -13
10 -13 6 0 10 5 10 10 0 6 5 10 11 10 8 0 7 -5 -2 -16 -10 -13 -10 -17 2 -25
8 -5 21 -9 29 -9 8 0 0 -8 -17 -16 -26 -13 -32 -21 -29 -40 3 -14 1 -22 -5
-19 -5 4 -9 -1 -9 -10 0 -14 -3 -14 -30 0 -17 9 -35 13 -40 10 -6 -3 -10 -2
-10 3 0 5 -18 21 -40 36 -24 16 -38 31 -34 38 4 6 3 8 -3 5 -6 -4 -24 6 -41
21 -17 15 -40 34 -53 42 -12 8 -31 24 -43 35 -11 11 -41 36 -66 55 -25 19 -46
38 -48 42 -2 5 -12 8 -23 8 -11 0 -23 10 -29 24 -5 13 -17 27 -28 30 -29 10
-157 168 -145 180 4 3 1 6 -6 6 -8 0 -11 6 -7 16 3 8 -3 24 -14 36 -24 26
-100 198 -100 227 0 26 4 26 31 4z m-2621 -87 c0 -8 -4 -18 -10 -21 -5 -3 -10
3 -10 14 0 12 5 21 10 21 6 0 10 -6 10 -14z m-43 -18 c-3 -8 -6 -5 -6 6 -1 11
2 17 5 13 3 -3 4 -12 1 -19z m6484 -163 c10 -27 15 -53 13 -57 -3 -4 3 -19 12
-32 9 -14 14 -31 11 -38 -2 -7 -14 9 -26 36 -12 27 -20 51 -17 53 2 2 -7 31
-20 63 -13 33 -24 65 -24 72 1 19 31 -39 51 -97z m49 -50 c42 -89 47 -110 29
-120 -6 -4 -9 -1 -7 7 3 15 -31 90 -44 96 -4 2 -5 9 -2 16 3 8 -2 30 -10 50
-29 70 -5 35 34 -49z m-6504 -6 c-9 -22 -15 -27 -15 -16 -1 21 18 61 25 54 3
-3 -2 -20 -10 -38z m-29 -61 c-3 -8 -6 -5 -6 6 -1 11 2 17 5 13 3 -3 4 -12 1
-19z m6536 -55 c7 -16 19 -53 26 -83 8 -30 20 -62 27 -71 8 -9 15 -40 16 -70
2 -97 -3 -209 -11 -214 -5 -2 -18 51 -30 118 -13 67 -31 164 -42 215 -21 104
-23 132 -9 132 5 0 16 -12 23 -27z m-6581 -32 c-5 -3 -12 -15 -16 -26 -7 -21
-76 -104 -76 -91 0 14 31 66 39 66 5 0 11 8 15 18 3 9 10 24 15 32 5 8 13 24
17 35 7 19 8 19 12 -4 2 -13 -1 -26 -6 -30z m6638 19 c0 -5 -4 -10 -10 -10 -5
0 -10 5 -10 10 0 6 5 10 10 10 6 0 10 -4 10 -10z m14 -106 c3 -8 2 -12 -4 -9
-6 3 -10 10 -10 16 0 14 7 11 14 -7z m-3299 -4 c-3 -5 -11 -10 -16 -10 -6 0
-7 5 -4 10 3 6 11 10 16 10 6 0 7 -4 4 -10z m475 -25 c-7 -8 -9 -15 -4 -15 5
0 19 -3 32 -6 16 -5 22 -2 22 11 0 13 6 16 26 11 14 -4 32 -2 40 4 16 14 34 5
34 -16 0 -10 7 -13 25 -8 21 5 25 3 25 -16 0 -11 -4 -18 -10 -15 -9 6 -15 -42
-12 -90 2 -17 0 -18 -8 -5 -8 12 -10 7 -9 -20 1 -19 -3 -46 -8 -60 -19 -45
-33 -124 -28 -160 6 -47 -15 -79 -50 -73 -20 4 -24 2 -19 -11 4 -10 1 -16 -8
-16 -13 0 -122 35 -170 55 -15 6 -35 58 -30 79 2 4 -2 14 -8 20 -5 7 -7 16 -4
19 4 4 0 17 -9 30 -11 17 -12 28 -5 41 6 10 8 31 4 46 -3 19 -1 30 9 34 18 7
20 42 3 50 -7 3 -3 3 9 0 26 -6 63 22 63 48 0 13 8 18 25 18 14 0 25 5 25 10
0 6 -5 10 -11 10 -16 0 33 39 50 40 11 0 11 -3 1 -15z m2700 -40 c0 -5 -5 -3
-10 5 -5 8 -10 20 -10 25 0 6 5 3 10 -5 5 -8 10 -19 10 -25z m3 -190 c4 -22 2
-46 -2 -54 -6 -9 -10 7 -13 47 -3 67 6 71 15 7z m184 13 c-3 -8 -6 -5 -6 6 -1
11 2 17 5 13 3 -3 4 -12 1 -19z m-3217 -4 c0 -8 -4 -12 -10 -9 -5 3 -10 10
-10 16 0 5 5 9 10 9 6 0 10 -7 10 -16z m3230 -46 c0 -5 -4 -8 -10 -8 -5 0 -10
10 -10 23 0 18 2 19 10 7 5 -8 10 -18 10 -22z m-154 -58 c-4 -29 8 -42 17 -17
11 29 19 -48 8 -81 -14 -47 -10 -154 5 -148 15 6 15 -37 0 -98 -9 -36 -15 -45
-22 -35 -18 28 -32 136 -27 214 3 44 5 96 4 115 0 40 7 80 15 80 3 0 3 -13 0
-30z m44 -127 c0 -10 -4 -25 -10 -33 -6 -10 -9 -5 -8 18 1 33 18 47 18 15z
m-6949 -100 c-9 -16 -10 -16 -11 4 0 12 3 30 7 40 7 16 8 16 11 -4 2 -12 -1
-30 -7 -40z m6576 0 c-3 -10 -5 -4 -5 12 0 17 2 24 5 18 2 -7 2 -21 0 -30z
m-6590 -55 c-3 -8 -6 -5 -6 6 -1 11 2 17 5 13 3 -3 4 -12 1 -19z m6603 -14 c0
-14 -4 -23 -10 -19 -5 3 -10 15 -10 26 0 10 5 19 10 19 6 0 10 -12 10 -26z
m-5750 -4 c-8 -5 -19 -10 -25 -10 -5 0 -3 5 5 10 8 5 20 10 25 10 6 0 3 -5 -5
-10z m5617 -12 c-3 -8 -6 -5 -6 6 -1 11 2 17 5 13 3 -3 4 -12 1 -19z m23 -49
c0 -5 -4 -9 -10 -9 -5 0 -10 7 -10 16 0 8 5 12 10 9 6 -3 10 -10 10 -16z m-7
-32 c9 -3 17 -11 17 -16 0 -6 -6 -8 -14 -5 -8 3 -17 1 -20 -4 -3 -6 1 -12 8
-15 8 -3 20 -25 27 -47 10 -34 10 -43 0 -50 -8 -4 -11 -13 -7 -19 4 -6 1 -23
-7 -38 -13 -24 -15 -25 -21 -7 -19 62 -26 244 -7 217 3 -5 14 -12 24 -16z
m496 -16 c-3 -39 -21 -47 -33 -15 -3 9 -1 12 4 9 6 -3 10 2 10 13 0 17 8 32
17 32 2 0 3 -18 2 -39z m-6123 -106 c6 -15 -17 -45 -34 -45 -11 0 -21 30 -15
48 6 17 42 15 49 -3z m3900 -81 c-5 -13 -10 -14 -18 -6 -6 6 -8 18 -4 28 5 13
10 14 18 6 6 -6 8 -18 4 -28z m-4018 -19 c-3 -25 -2 -45 3 -45 5 0 9 6 9 14 0
8 5 18 10 21 15 10 12 -22 -5 -38 -7 -8 -17 -26 -21 -41 -7 -30 -10 -31 -30
-12 -21 21 -21 58 0 105 25 54 40 53 34 -4z m5869 -17 c-3 -7 -5 -2 -5 12 0
14 2 19 5 13 2 -7 2 -19 0 -25z m47 -10 c5 -22 3 -26 -9 -22 -15 6 -20 35 -8
47 8 9 9 8 17 -25z m-39 -84 c19 -19 25 -17 25 5 0 32 20 35 22 4 4 -68 -6
-123 -23 -123 -13 0 -11 38 2 42 5 2 7 11 3 22 -5 14 -9 15 -15 4 -6 -9 -9 -7
-9 8 0 12 -7 27 -15 34 -9 7 -14 27 -13 49 l1 36 4 -34 c3 -19 11 -40 18 -47z
m12 34 c-3 -8 -6 -5 -6 6 -1 11 2 17 5 13 3 -3 4 -12 1 -19z m-5957 -45 c0
-19 -3 -24 -10 -17 -6 6 -8 18 -4 27 9 24 14 21 14 -10z m5747 -5 c-3 -8 -6
-5 -6 6 -1 11 2 17 5 13 3 -3 4 -12 1 -19z m-6514 -36 c-3 -22 1 -53 10 -75
10 -23 12 -39 6 -43 -5 -3 -7 -15 -4 -27 5 -18 4 -19 -4 -7 -6 8 -8 29 -5 45
3 20 2 25 -4 17 -6 -10 -11 -3 -15 25 -9 49 -9 98 -1 106 14 14 22 -5 17 -41z
m6382 -31 c-3 -6 -11 -11 -17 -11 -6 0 -6 6 2 15 14 17 26 13 15 -4z m-88 -21
c1 -11 -2 -20 -8 -20 -10 0 -12 23 -2 33 9 9 9 10 10 -13z m19 -67 c-4 -13
-12 -22 -19 -20 -15 5 -11 45 6 65 10 13 12 13 15 -2 2 -10 1 -29 -2 -43z
m-63 -83 c6 -14 13 -29 16 -34 2 -5 -1 -6 -8 -2 -6 4 -14 0 -17 -8 -3 -9 -10
-16 -16 -16 -5 0 -7 4 -4 9 4 5 -2 24 -11 41 -14 25 -15 34 -5 37 6 3 12 17
13 31 l1 27 10 -30 c5 -16 15 -41 21 -55z m-6249 5 c-4 -8 -8 -15 -10 -15 -2
0 -4 7 -4 15 0 8 4 15 10 15 5 0 7 -7 4 -15z m17 -76 c-6 -11 -11 -28 -11 -39
0 -11 -4 -20 -10 -20 -5 0 -10 16 -10 36 0 22 4 33 11 29 6 -4 10 -1 8 6 -1 8
-1 21 0 29 1 11 4 10 13 -4 8 -14 8 -24 -1 -37z m6259 6 c7 -9 11 -18 8 -20
-9 -10 -38 7 -38 21 0 18 14 18 30 -1z m-96 -70 c3 -8 1 -15 -4 -15 -6 0 -10
7 -10 15 0 8 2 15 4 15 2 0 6 -7 10 -15z m-5767 -127 c-3 -7 -5 -2 -5 12 0 14
2 19 5 13 2 -7 2 -19 0 -25z m240 -40 c-3 -8 -6 -5 -6 6 -1 11 2 17 5 13 3 -3
4 -12 1 -19z m-412 -80 c-4 -24 -11 -47 -16 -52 -5 -6 -9 -14 -9 -18 0 -11 23
-6 32 7 4 5 10 2 14 -8 3 -9 2 -23 -4 -30 -5 -6 -8 -32 -6 -57 3 -41 -30 -168
-50 -187 -3 -4 -6 -14 -6 -23 0 -24 -36 -56 -43 -38 -3 7 -6 2 -6 -10 -1 -27
-35 -75 -45 -65 -4 4 -9 -2 -12 -14 -7 -25 -34 -39 -34 -18 0 8 -6 12 -14 9
-10 -4 -15 6 -18 33 -6 45 7 75 30 71 13 -2 23 15 42 69 14 39 28 75 33 79 4
4 7 19 7 33 0 22 1 23 13 8 10 -14 12 -5 14 55 3 72 23 125 23 59 0 -51 17
-27 25 36 7 59 20 103 31 103 3 0 3 -19 -1 -42z m3885 -10 c0 -5 -5 -8 -10 -8
-13 0 -30 41 -22 54 5 8 31 -30 32 -46z m74 -240 c33 -101 81 -250 108 -333
27 -82 52 -176 55 -207 5 -52 4 -58 -13 -58 -17 0 -19 8 -20 63 0 39 -11 95
-28 150 -30 92 -42 112 -32 49 3 -21 1 -54 -4 -73 -14 -47 -15 -120 -2 -128
12 -7 5 -81 -8 -81 -3 0 -11 10 -17 23 -38 78 -126 598 -107 629 11 17 33 -19
27 -42 -3 -13 0 -20 8 -20 11 0 12 -2 1 -9 -11 -6 -7 -42 19 -187 17 -98 36
-188 40 -199 12 -26 1 104 -12 148 -5 18 -12 79 -16 135 -4 66 -11 109 -20
117 -7 7 -11 20 -8 27 3 8 -6 48 -20 89 -27 81 -29 89 -17 89 4 0 34 -82 66
-182z m20 77 c4 -19 3 -25 -3 -15 -4 8 -11 29 -15 45 -4 19 -3 25 3 15 4 -8
11 -28 15 -45z m-4115 -17 c-11 -72 -30 -137 -41 -144 -12 -8 -8 76 4 92 5 7
8 16 6 20 -4 17 25 84 37 84 1 0 -2 -24 -6 -52z m5551 -55 c0 -10 3 -55 5
-100 3 -48 0 -85 -5 -88 -6 -3 -11 0 -11 7 -1 7 -3 24 -4 38 -1 14 -10 47 -19
73 -17 47 -17 50 1 67 23 24 32 24 33 3z m-1382 -103 c26 -76 27 -86 9 -68
-17 17 -33 69 -41 128 -6 50 -1 40 32 -60z m-4338 -60 c0 -5 -4 -10 -10 -10
-5 0 -10 5 -10 10 0 6 5 10 10 10 6 0 10 -4 10 -10z m5697 -7 c-3 -2 1 -20 9
-38 8 -20 11 -47 7 -66 -6 -30 -7 -31 -20 -14 -16 23 -18 140 -2 130 6 -4 8
-9 6 -12z m-5699 -111 c0 -26 -5 -50 -10 -54 -6 -3 -11 -20 -11 -37 0 -24 -5
-31 -20 -31 -11 0 -17 -3 -14 -7 4 -3 2 -12 -5 -20 -10 -12 -5 -14 28 -11 l39
3 9 -77 c4 -43 11 -78 15 -78 3 0 6 -35 6 -78 -1 -53 -6 -87 -18 -109 -9 -18
-17 -37 -17 -43 0 -7 -9 -24 -19 -39 -11 -15 -23 -39 -26 -53 -7 -27 -58 -88
-73 -88 -6 0 -12 -7 -16 -15 -3 -8 -12 -15 -20 -15 -18 0 -25 62 -25 210 0 58
-3 128 -6 155 -9 74 3 175 21 175 8 0 14 5 14 10 0 18 20 11 21 -7 0 -12 4 -8
11 10 5 15 15 27 21 27 7 0 13 17 14 38 1 28 0 32 -7 17 -10 -23 -13 -14 -10
30 1 17 10 44 19 61 11 19 16 42 13 62 -4 27 -1 32 16 32 11 0 23 8 27 18 6
14 9 12 15 -11 5 -15 8 -49 8 -75z m-113 -59 c-3 -35 -25 -93 -35 -93 -7 0 4
78 15 108 8 23 23 12 20 -15z m5838 -25 c4 -29 3 -48 -3 -48 -6 0 -10 23 -10
52 0 62 5 60 13 -4z m-5993 28 c0 -3 -4 -8 -10 -11 -5 -3 -10 -1 -10 4 0 6 5
11 10 11 6 0 10 -2 10 -4z m502 -64 c-12 -15 -28 -38 -35 -52 -6 -14 -20 -33
-29 -42 -10 -10 -18 -25 -18 -33 0 -8 -4 -15 -9 -15 -5 0 -12 -15 -15 -32 l-7
-33 -19 24 c-22 25 -27 68 -21 158 1 13 101 63 126 63 8 0 19 8 22 17 6 14 8
14 16 -6 8 -17 6 -27 -11 -49z m4218 -68 c7 -23 10 -48 8 -55 -7 -18 -38 86
-37 120 l1 26 8 -25 c4 -14 13 -44 20 -66z m-4916 47 c4 -5 -3 -7 -14 -4 -23
6 -26 13 -6 13 8 0 17 -4 20 -9z m4933 -173 c-3 -7 -5 -2 -5 12 0 14 2 19 5
13 2 -7 2 -19 0 -25z m-152 -120 l48 -73 -17 -70 c-25 -99 -27 -107 -32 -102
-3 3 -54 296 -54 312 0 13 11 0 55 -67z m-4194 -325 c-18 -33 -20 -35 -21 -14
0 23 28 66 37 57 3 -2 -5 -21 -16 -43z m4330 17 c44 -12 72 -42 88 -96 12 -36
11 -45 -8 -87 -12 -25 -21 -49 -21 -53 0 -13 -99 -104 -126 -114 -15 -6 -51
-11 -80 -12 -49 -1 -55 1 -92 40 -28 29 -39 48 -37 66 4 33 25 99 36 111 5 5
9 17 9 27 0 40 120 127 175 128 11 0 36 -5 56 -10z m1560 -22 c11 -21 11 -22
-4 -9 -10 7 -17 17 -17 22 0 15 9 10 21 -13z m-26 -238 c3 -5 2 -10 -4 -10 -5
0 -13 5 -16 10 -3 6 -2 10 4 10 5 0 13 -4 16 -10z m15 -60 c4 0 6 10 3 23 -4
19 -2 17 16 -8 12 -16 20 -38 17 -47 -2 -10 0 -21 5 -24 6 -3 21 -31 35 -62
19 -42 24 -68 21 -99 -2 -23 0 -46 5 -51 6 -6 7 -15 4 -21 -12 -19 -44 24 -39
53 4 19 2 26 -8 24 -15 -3 -16 13 -4 47 6 20 6 20 -9 1 -15 -19 -16 -19 -22 0
-4 10 -11 21 -14 24 -11 8 -59 123 -61 145 -3 45 2 50 22 23 11 -16 24 -28 29
-28z m-5900 0 c0 -5 -5 -10 -11 -10 -5 0 -7 5 -4 10 3 6 8 10 11 10 2 0 4 -4
4 -10z m6063 -192 c5 -33 2 -46 -9 -36 -9 10 -14 68 -5 68 5 0 11 -15 14 -32z
m-237 -76 c6 -4 11 -14 12 -22 1 -8 3 -35 7 -59 3 -32 2 -42 -6 -34 -6 6 -12
19 -14 29 -2 11 -4 19 -5 19 -1 0 -3 9 -5 20 -1 11 -6 28 -10 38 -7 18 2 22
21 9z m230 -67 c-4 -19 -2 -36 4 -40 13 -8 13 -55 -2 -110 -15 -54 -25 -57
-34 -10 -9 48 -5 137 7 153 3 4 6 21 8 38 0 8 6 12 12 8 6 -4 8 -20 5 -39z
m-360 -27 c1 -13 5 -34 8 -48 5 -19 3 -18 -8 6 -8 17 -18 44 -22 60 -5 24 -4
27 6 17 8 -7 14 -23 16 -35z m208 -113 c-7 -18 -8 -18 -15 1 -4 10 -8 26 -8
34 -1 12 1 12 14 -1 10 -10 13 -22 9 -34z m86 -130 c0 -8 5 -15 10 -15 6 0 10
5 10 12 0 9 3 8 13 -1 9 -11 9 -15 0 -18 -8 -3 -10 -15 -6 -35 5 -23 3 -29 -6
-24 -7 5 -10 13 -8 20 3 7 -4 23 -14 37 -21 27 -24 39 -9 39 6 0 10 -7 10 -15z
m-3450 -22 c0 -4 -11 -18 -24 -32 -14 -15 -34 -51 -46 -81 -32 -82 -60 -91
-60 -18 0 46 27 91 74 119 32 19 56 25 56 12z m3390 -105 c0 -19 -2 -20 -10
-8 -13 19 -13 30 0 30 6 0 10 -10 10 -22z m-3456 -218 c20 -22 36 -42 36 -45
0 -3 -15 1 -32 8 -21 8 -34 22 -36 35 -2 12 -10 22 -18 22 -8 0 -12 5 -9 10
11 17 21 11 59 -30z m-87 -148 l21 -38 -51 -177 c-48 -164 -54 -178 -77 -183
-14 -3 -33 -9 -42 -15 -10 -5 -20 -9 -23 -9 -22 0 43 277 84 357 11 23 21 47
21 52 0 25 21 60 32 56 7 -3 23 -22 35 -43z m-6 -568 c5 -3 9 -13 9 -23 0 -11
8 -29 18 -41 26 -32 46 -18 39 26 -6 33 -5 33 26 27 47 -9 67 -21 61 -38 -4
-8 -12 -15 -20 -15 -17 0 -64 -61 -64 -83 0 -11 8 -17 24 -17 19 0 26 7 31 29
3 16 15 37 26 47 20 18 20 18 14 -61 -3 -44 -8 -105 -12 -135 l-6 -55 -21 46
c-11 25 -29 64 -39 87 -18 41 -36 53 -90 57 -15 2 -29 4 -30 6 -17 31 -67 142
-67 151 0 11 81 5 101 -8z m-91 -130 c0 -8 -4 -12 -10 -9 -5 3 -10 10 -10 16
0 5 5 9 10 9 6 0 10 -7 10 -16z m143 -306 c33 -6 61 -17 64 -25 6 -16 -40
-174 -67 -231 -10 -20 -21 -52 -25 -71 l-7 -34 -65 6 c-36 4 -71 11 -77 16 -7
6 -21 8 -32 6 -10 -3 -44 1 -74 8 -53 12 -55 14 -53 44 3 34 88 270 106 291
12 15 121 10 230 -10z m-307 -393 c3 -14 1 -53 -5 -87 -12 -74 -31 -307 -31
-394 0 -47 -5 -68 -21 -88 -11 -14 -24 -26 -28 -26 -4 0 -13 18 -20 41 -11 35
-9 57 8 148 12 58 25 178 29 267 5 88 12 166 16 172 11 18 45 -4 52 -33z m109
-5 c3 -5 1 -10 -4 -10 -6 0 -11 5 -11 10 0 6 2 10 4 10 3 0 8 -4 11 -10z m505
-555 c0 -16 -27 -32 -37 -21 -7 7 16 36 28 36 5 0 9 -7 9 -15z m216 -41 c13
-18 14 -28 6 -36 -15 -15 -52 17 -52 44 0 26 27 22 46 -8z m-806 -8 c0 -2 -18
-15 -41 -30 -30 -20 -39 -32 -34 -46 4 -13 -7 -29 -44 -60 -28 -23 -60 -57
-73 -76 -25 -37 -27 -38 -47 -25 -20 13 -7 41 57 117 32 38 72 72 109 92 55
30 73 37 73 28z m635 -76 c3 -5 1 -10 -4 -10 -6 0 -11 5 -11 10 0 6 2 10 4 10
3 0 8 -4 11 -10z m-142 -157 c-7 -2 -19 -2 -25 0 -7 3 -2 5 12 5 14 0 19 -2
13 -5z m-723 -43 c0 -13 -7 -20 -20 -20 -19 0 -27 20 -13 33 13 14 33 6 33
-13z m-14 -135 c8 -31 4 -36 -30 -39 -23 -3 -25 -1 -19 23 8 35 12 41 28 41 8
0 17 -11 21 -25z m134 15 c0 -5 -5 -10 -11 -10 -5 0 -7 5 -4 10 3 6 8 10 11
10 2 0 4 -4 4 -10z m3430 -111 c0 -5 -7 -9 -15 -9 -15 0 -20 12 -9 23 8 8 24
-1 24 -14z"/>
<path d="M6590 10649 c0 -5 5 -7 10 -4 6 3 10 8 10 11 0 2 -4 4 -10 4 -5 0
-10 -5 -10 -11z"/>
<path d="M6717 10613 c-4 -3 -7 -11 -7 -17 0 -6 5 -5 12 2 6 6 9 14 7 17 -3 3
-9 2 -12 -2z"/>
<path d="M7040 10080 c0 -8 5 -22 10 -30 9 -13 10 -13 10 0 0 8 -5 22 -10 30
-9 13 -10 13 -10 0z"/>
<path d="M5019 8531 c-101 -14 -109 -76 -9 -66 19 1 43 3 53 4 9 1 17 8 17 16
0 8 7 15 15 15 20 0 65 22 65 32 0 9 -71 9 -141 -1z"/>
<path d="M5584 8501 c4 -6 30 -23 58 -37 29 -15 58 -32 66 -40 25 -25 50 -35
55 -21 3 8 11 6 27 -8 21 -18 23 -18 17 -2 -4 10 -7 21 -7 23 0 2 -5 4 -11 4
-7 0 -18 8 -25 18 -13 16 -14 16 -8 -3 5 -17 2 -16 -18 6 -25 28 -75 53 -127
64 -24 5 -31 4 -27 -4z"/>
<path d="M5060 8452 c0 -5 19 -19 43 -32 47 -26 83 -64 92 -98 12 -48 128
-280 173 -346 80 -119 217 -206 388 -247 106 -25 225 -21 344 12 125 34 175
68 327 219 137 136 171 160 235 160 21 0 32 16 15 23 -6 2 -46 2 -87 -1 -171
-11 -282 0 -456 43 -75 19 -108 22 -195 18 -96 -5 -106 -3 -128 16 -13 12 -30
21 -37 21 -7 0 -28 8 -46 19 -19 11 -90 28 -173 41 -77 12 -156 26 -175 32
-33 9 -233 97 -272 118 -22 12 -48 13 -48 2z m377 -233 c10 -9 29 -16 42 -17
13 0 32 -9 43 -19 11 -9 36 -18 56 -19 20 -1 57 -8 82 -17 185 -63 337 -88
525 -87 63 0 80 -10 71 -43 -10 -40 -29 -52 -108 -73 -101 -26 -252 -24 -382
4 -55 12 -107 29 -116 37 -9 8 -20 15 -24 15 -11 0 -76 50 -128 99 -35 33 -48
52 -48 73 0 20 -4 26 -15 22 -18 -7 -45 12 -45 31 0 17 24 13 47 -6z m875
-191 c-6 -6 -15 -8 -19 -4 -4 4 -1 11 7 16 19 12 27 3 12 -12z m-622 -117 c0
-5 9 -11 20 -14 11 -3 20 -1 20 4 0 11 73 5 93 -8 6 -4 19 -6 29 -5 20 4 30
-11 22 -32 -4 -11 -13 -15 -26 -10 -13 4 -18 2 -14 -4 4 -6 -6 -7 -29 -2 -19
4 -36 5 -39 2 -4 -3 -6 2 -6 12 0 10 -5 14 -11 10 -11 -7 -59 14 -71 31 -11
14 -10 25 2 25 6 0 10 -4 10 -9z m250 -31 c0 -5 -2 -10 -4 -10 -3 0 -8 5 -11
10 -3 6 -1 10 4 10 6 0 11 -4 11 -10z"/>
<path d="M6106 8392 c-3 -5 -22 -9 -43 -10 -24 -1 -53 -12 -80 -31 -35 -25
-50 -29 -92 -27 -32 1 -57 9 -70 21 -12 10 -21 13 -21 6 0 -6 10 -19 22 -29
12 -9 31 -26 42 -38 26 -26 59 -25 113 4 23 12 50 22 60 22 10 0 28 7 40 15
13 9 60 19 110 24 86 8 133 22 133 41 0 5 -12 2 -27 -5 -16 -8 -43 -12 -63
-10 -19 3 -49 7 -67 9 -17 2 -36 7 -42 10 -5 4 -12 2 -15 -2z"/>
<path d="M6695 8223 c4 -10 10 -28 12 -40 3 -13 10 -23 15 -23 6 0 8 -6 5 -13
-10 -27 8 -39 36 -24 l27 14 -34 45 c-37 48 -75 73 -61 41z"/>
<path d="M2745 8780 c3 -5 8 -10 11 -10 2 0 4 5 4 10 0 6 -5 10 -11 10 -5 0
-7 -4 -4 -10z"/>
<path d="M5511 6994 c0 -11 3 -14 6 -6 3 7 2 16 -1 19 -3 4 -6 -2 -5 -13z"/>
<path d="M5710 6761 c0 -5 5 -13 10 -16 6 -3 10 -2 10 4 0 5 -4 13 -10 16 -5
3 -10 2 -10 -4z"/>
<path d="M8432 6135 c0 -16 2 -22 5 -12 2 9 2 23 0 30 -3 6 -5 -1 -5 -18z"/>
<path d="M2027 4955 c-4 -11 -10 -27 -14 -35 -4 -10 -1 -10 11 3 10 9 16 25
14 35 -3 15 -5 15 -11 -3z"/>
<path d="M6125 4440 c3 -5 8 -10 11 -10 2 0 4 5 4 10 0 6 -5 10 -11 10 -5 0
-7 -4 -4 -10z"/>
<path d="M1663 4415 c-6 -27 -10 -52 -8 -54 8 -8 26 53 23 78 -3 20 -6 14 -15
-24z"/>
<path d="M1640 4315 c0 -8 2 -15 4 -15 2 0 6 7 10 15 3 8 1 15 -4 15 -6 0 -10
-7 -10 -15z"/>
<path d="M6201 3870 c-27 -23 -15 -26 23 -7 14 8 23 17 19 20 -10 10 -16 8
-42 -13z"/>
<path d="M4237 2513 c-6 -33 9 -77 24 -67 6 4 8 20 4 40 -4 22 -2 34 5 34 6 0
8 5 5 10 -12 19 -33 10 -38 -17z"/>
<path d="M4254 1506 c-8 -22 3 -33 18 -18 9 9 9 15 0 24 -9 9 -13 7 -18 -6z"/>
<path d="M4147 1386 c-6 -15 1 -26 15 -26 11 0 10 27 -1 34 -5 3 -11 0 -14 -8z"/>
<path d="M4073 1325 c-3 -9 -3 -18 -1 -21 9 -9 38 8 38 22 0 19 -29 18 -37 -1z"/>
<path d="M4220 1271 c0 -5 5 -13 10 -16 6 -3 10 -2 10 4 0 5 -4 13 -10 16 -5
3 -10 2 -10 -4z"/>
<path d="M4305 11550 c-3 -5 -1 -10 4 -10 6 0 11 5 11 10 0 6 -2 10 -4 10 -3
0 -8 -4 -11 -10z"/>
<path d="M3962 11100 c-12 -16 -22 -32 -22 -37 0 -4 11 8 25 27 14 19 25 35
25 37 0 8 -8 0 -28 -27z"/>
<path d="M3492 10370 c-8 -13 -8 -20 -2 -20 6 0 13 7 17 15 9 24 -1 27 -15 5z"/>
<path d="M3110 9600 c0 -5 4 -10 9 -10 6 0 13 5 16 10 3 6 -1 10 -9 10 -9 0
-16 -4 -16 -10z"/>
<path d="M3090 9565 c-7 -9 -11 -18 -8 -20 3 -3 11 1 18 10 7 9 11 18 8 20 -3
3 -11 -1 -18 -10z"/>
<path d="M8850 9140 c-6 -11 -8 -20 -6 -20 3 0 10 9 16 20 6 11 8 20 6 20 -3
0 -10 -9 -16 -20z"/>
<path d="M8891 8630 c0 -11 36 -111 43 -117 9 -9 -19 79 -32 103 -6 10 -11 17
-11 14z"/>
<path d="M2457 8479 c-9 -6 -17 -17 -17 -25 0 -11 5 -10 22 6 24 22 22 34 -5
19z"/>
<path d="M8762 8440 c0 -14 2 -19 5 -12 2 6 2 18 0 25 -3 6 -5 1 -5 -13z"/>
<path d="M8990 8405 c7 -8 17 -15 22 -15 5 0 3 7 -6 15 -8 8 -18 15 -22 15 -3
0 -1 -7 6 -15z"/>
<path d="M2515 8400 c-3 -5 -1 -10 4 -10 6 0 11 5 11 10 0 6 -2 10 -4 10 -3 0
-8 -4 -11 -10z"/>
<path d="M2216 7295 c4 -8 1 -15 -7 -15 -7 0 -9 -3 -6 -6 9 -9 38 16 31 27 -9
15 -24 10 -18 -6z"/>
<path d="M9015 6460 c3 -5 11 -10 16 -10 6 0 7 5 4 10 -3 6 -11 10 -16 10 -6
0 -7 -4 -4 -10z"/>
<path d="M8972 6135 c0 -16 2 -22 5 -12 2 9 2 23 0 30 -3 6 -5 -1 -5 -18z"/>
<path d="M8935 6100 c-3 -5 -1 -10 4 -10 6 0 11 5 11 10 0 6 -2 10 -4 10 -3 0
-8 -4 -11 -10z"/>
<path d="M8590 5596 c0 -8 4 -17 9 -20 5 -4 7 3 4 14 -6 23 -13 26 -13 6z"/>
<path d="M8261 5562 c-7 -13 -11 -28 -8 -35 2 -7 9 -2 16 11 7 13 11 28 8 35
-2 7 -9 2 -16 -11z"/>
<path d="M8601 5544 c0 -11 3 -14 6 -6 3 7 2 16 -1 19 -3 4 -6 -2 -5 -13z"/>
<path d="M7862 4150 c0 -14 2 -19 5 -12 2 6 2 18 0 25 -3 6 -5 1 -5 -13z"/>
<path d="M7882 4010 c0 -14 2 -19 5 -12 2 6 2 18 0 25 -3 6 -5 1 -5 -13z"/>
<path d="M1717 3893 c-4 -3 -7 -11 -7 -17 0 -6 5 -5 12 2 6 6 9 14 7 17 -3 3
-9 2 -12 -2z"/>
<path d="M7991 3854 c0 -11 3 -14 6 -6 3 7 2 16 -1 19 -3 4 -6 -2 -5 -13z"/>
<path d="M1690 3321 c0 -6 5 -13 10 -16 6 -3 10 1 10 9 0 9 -4 16 -10 16 -5 0
-10 -4 -10 -9z"/>
<path d="M7921 2734 c0 -11 3 -14 6 -6 3 7 2 16 -1 19 -3 4 -6 -2 -5 -13z"/>
<path d="M2310 2655 c0 -8 7 -15 15 -15 9 0 12 6 9 15 -4 8 -10 15 -15 15 -5
0 -9 -7 -9 -15z"/>
<path d="M2250 2551 c-11 -28 -9 -51 19 -192 17 -89 38 -174 47 -190 15 -30
60 -59 90 -59 16 0 15 2 -1 21 -12 13 -20 38 -21 69 -2 27 -7 58 -13 69 -17
31 -13 66 9 86 21 19 20 19 -10 46 -25 23 -30 36 -30 73 0 37 -4 47 -22 57
-13 6 -30 20 -39 31 -15 20 -16 19 -29 -11z"/>
<path d="M2360 2476 c0 -2 7 -9 15 -16 13 -11 14 -10 9 4 -5 14 -24 23 -24 12z"/>
<path d="M5888 365 c-86 -24 -128 -73 -57 -67 19 2 62 5 97 8 52 5 68 2 98
-15 19 -12 37 -21 39 -21 2 0 -9 20 -25 44 -26 38 -75 70 -99 65 -3 -1 -27 -7
-53 -14z"/>
<path d="M5760 242 c0 -10 -13 -31 -29 -46 -34 -32 -53 -90 -50 -151 l3 -45
87 0 c60 0 89 4 91 12 3 7 15 13 29 13 30 0 38 31 13 50 -16 11 -14 14 23 33
49 26 96 18 101 -16 4 -26 22 -30 22 -4 0 10 5 23 12 30 8 8 8 15 -2 27 -9 10
-17 12 -23 6 -6 -6 -21 -1 -43 15 -39 30 -134 68 -134 54 0 -12 -60 -13 -79
-1 -7 5 -11 13 -7 19 3 6 2 13 -4 17 -5 3 -10 -2 -10 -13z m225 -93 c11 -17
-1 -21 -15 -4 -8 9 -8 15 -2 15 6 0 14 -5 17 -11z m-220 -109 c16 -17 16 -20
2 -26 -22 -8 -37 3 -37 27 0 24 12 24 35 -1z"/>
</g>
</svg>
